# xmcd CD database file
#
# Track frame offsets:
#	150
#	37712
#	65087
#	112762
#	142387
#	184387
#	231112
#
# Disc length: 3673 seconds
#
# Revision: 0
# Processed by: cddbd v1.5.1PL0 Copyright (c) Steve Scherf et al.
# Submitted via: CDex 1.51
#
DISCID=600e5707
DTITLE=陳音 Chen Yin - 漂 Riding On The Current
DYEAR=1995
DGENRE=Classical
TTITLE0=漂 Riding On The Current (Pipa and Percussion)
TTITLE1=龍船 Dragon Boat
TTITLE2=訴 Story
TTITLE3=陽光照耀著塔什庫爾干 Sunshine On Taxkorgan
TTITLE4=阿詩[王馬] Narrative Poem Of Ashima
TTITLE5=覇王卸甲 Emperor Chu Shedding His Armour
TTITLE6=改進操 March For Betterment
EXTD=YEAR: 1995
EXTT0=
EXTT1=
EXTT2=
EXTT3=
EXTT4=
EXTT5=
EXTT6=
PLAYORDER=
